# xmcd
#
# Track frame offsets: 
#        150
#        31283
#        61123
#        90344
#        111605
#        134264
#        153371
#        172739
#        193173
#        253227
#        274811
#
# Disc length: 4212 seconds
#
# Revision: 0
# Processed by: cddbd v1.5.2PL0 Copyright (c) Steve Scherf et al.
# Submitted via: ExactAudioCopy v0.99pb5
#
DISCID=9310720b
DTITLE=Kiss  - The Hottest Show On Earth - Scranton,PA  [CD1]
DYEAR=1900
DGENRE=
TTITLE0=Modern Day Delilah
TTITLE1=Cold Gin
TTITLE2=Let Me Go, Rock N' Roll
TTITLE3=Firehouse
TTITLE4=Say Yeah
TTITLE5=Deuce
TTITLE6=Crazy, Crazy Nights
TTITLE7=Calling Dr. Love
TTITLE8=Shock Me
TTITLE9=I'm An Animal
TTITLE10=100,000 Years
EXTD=
EXTT0=
EXTT1=
EXTT2=
EXTT3=
EXTT4=
EXTT5=
EXTT6=
EXTT7=
EXTT8=
EXTT9=
EXTT10=
PLAYORDER=
